<svg id="Layer_1" data-name="Layer 1" xmlns="http://www.w3.org/2000/svg" viewBox="0 0 396 128.65">
    <defs>
        <style>.cls-1{fill:#;}.cls-2{fill:#76bc21;}.cls-3{fill:#bed330;}.cls-4{fill:#75bd43;}.cls-5{fill:#94c83f;}.cls-6{fill:#3aae49;}</style>
    </defs>

    <path class="cls-1" d="M166.74,89.39h-10.8V46.84H140.32V37.69h42.05v9.15H166.74Z"/>
    <path class="cls-1" d="M182.15,51.09h9.65v6.62h.14c2.09-3.89,4.4-7.63,10.52-7.63a18.08,18.08,0,0,1,1.94.14V60.45a18,18,0,0,0-2.88-.15c-7.85,0-9.29,4.9-9.29,9.15V89.39H182.15Z"/>
    <path class="cls-1" d="M243.71,89.39h-9.65V84h-.14c-2.3,4.11-6.34,6.41-11.66,6.41-7.57,0-13-4.32-13-14.11V51.09H219.3V74.85c0,5.9,3.46,7.06,6.56,7.06,3.31,0,7.77-1.88,7.77-8.72V51.09h10.08Z"/>
    <path class="cls-2" d="M259.62,89.39h-6.33V37.69h6.33Z"/>
    <path class="cls-2" d="M275.61,89.39h-6.34V51.73h6.34Z"/>
    <path class="cls-2" d="M317.08,77.58a16.32,16.32,0,0,1-6.7,10.3c-1.73,1.15-4.17,2.59-10.22,2.59-10.59,0-16.85-8-16.85-18.86,0-11.67,5.61-21,18.07-21,10.87,0,16.2,8.64,16.2,22h-27.5C290.08,80.46,293.75,85,301,85c6,0,9.51-4.61,9.72-7.42Zm-6.05-10c-.36-5.84-2.81-11.24-10.51-11.24-5.84,0-10.44,5.4-10.44,11.24Z"/>
    <path class="cls-2" d="M346.81,51.73h6.92L339.4,89.39h-6.77L318.88,51.73h7.34L336,82.41h.15Z"/>
    <path class="cls-2" d="M389.15,77.58a16.24,16.24,0,0,1-6.7,10.3c-1.72,1.15-4.17,2.59-10.22,2.59-10.59,0-16.85-8-16.85-18.86,0-11.67,5.62-21,18.07-21,10.88,0,16.2,8.64,16.2,22h-27.5c0,7.84,3.67,12.38,10.94,12.38,6,0,9.51-4.61,9.72-7.42Zm-6-10c-.36-5.84-2.81-11.24-10.51-11.24-5.83,0-10.44,5.4-10.44,11.24Z"/>
    <circle class="cls-2" cx="272.48" cy="40.61" r="3.99"/>
    <circle class="cls-3" cx="64.32" cy="4.5" r="4.5"/>
    <circle class="cls-3" cx="45.83" cy="7.43" r="4.5"/>
    <circle class="cls-3" cx="29.15" cy="15.93" r="4.5"/>
    <circle class="cls-3" cx="15.92" cy="29.17" r="4.5"/>
    <circle class="cls-3" cx="7.43" cy="45.85" r="4.5"/>
    <circle class="cls-3" cx="4.5" cy="64.34" r="4.5"/>
    <circle class="cls-3" cx="7.43" cy="82.82" r="4.5"/>
    <circle class="cls-3" cx="15.93" cy="99.5" r="4.5"/>
    <circle class="cls-3" cx="29.17" cy="112.73" r="4.5"/>
    <circle class="cls-3" cx="45.85" cy="121.23" r="4.5"/>
    <circle class="cls-3" cx="64.34" cy="124.15" r="4.5"/>
    <circle class="cls-3" cx="82.82" cy="121.22" r="4.5"/>
    <circle class="cls-3" cx="99.5" cy="112.72" r="4.5"/>
    <circle class="cls-3" cx="112.73" cy="99.48" r="4.5"/>
    <circle class="cls-3" cx="121.23" cy="82.8" r="4.5"/>
    <circle class="cls-3" cx="124.15" cy="64.32" r="4.5"/>
    <circle class="cls-3" cx="121.22" cy="45.83" r="4.5"/>
    <circle class="cls-3" cx="112.72" cy="29.15" r="4.5"/>
    <circle class="cls-3" cx="99.48" cy="15.92" r="4.5"/>
    <circle class="cls-3" cx="82.8" cy="7.43" r="4.5"/>
    <circle class="cls-4" cx="64.34" cy="30.45" r="4.5"/><circle class="cls-4" cx="47.4" cy="34.98" r="4.5"/><circle class="cls-4" cx="35" cy="47.37" r="4.5"/><circle class="cls-4" cx="30.45" cy="64.31" r="4.5"/><circle class="cls-4" cx="34.98" cy="81.25" r="4.5"/><circle class="cls-4" cx="47.37" cy="93.66" r="4.5"/><circle class="cls-4" cx="64.31" cy="98.2" r="4.5"/><circle class="cls-4" cx="81.25" cy="93.67" r="4.5"/><circle class="cls-4" cx="93.66" cy="81.28" r="4.5"/><circle class="cls-4" cx="98.2" cy="64.34" r="4.5"/><circle class="cls-4" cx="93.67" cy="47.4" r="4.5"/><circle class="cls-4" cx="81.28" cy="35" r="4.5"/><circle class="cls-5" cx="38.12" cy="24.62" r="4.5"/><circle class="cls-5" cx="24.92" cy="37.67" r="4.5"/><circle class="cls-5" cx="17.72" cy="54.78" r="4.5"/><circle class="cls-5" cx="17.61" cy="73.34" r="4.5"/><circle class="cls-5" cx="24.62" cy="90.53" r="4.5"/><circle class="cls-5" cx="37.67" cy="103.73" r="4.5"/><circle class="cls-5" cx="54.78" cy="110.93" r="4.5"/><circle class="cls-5" cx="73.34" cy="111.04" r="4.5"/><circle class="cls-5" cx="90.53" cy="104.03" r="4.5"/><circle class="cls-5" cx="103.73" cy="90.98" r="4.5"/><circle class="cls-5" cx="110.93" cy="73.87" r="4.5"/><circle class="cls-5" cx="111.04" cy="55.31" r="4.5"/><circle class="cls-5" cx="104.03" cy="38.12" r="4.5"/><circle class="cls-5" cx="90.98" cy="24.92" r="4.5"/><circle class="cls-5" cx="73.87" cy="17.72" r="4.5"/><circle class="cls-5" cx="55.31" cy="17.61" r="4.5"/><circle class="cls-6" cx="56.42" cy="43.7" r="4.5"/><circle class="cls-6" cx="72.57" cy="43.7" r="4.5"/><circle class="cls-6" cx="43.7" cy="72.24" r="4.5"/><circle class="cls-6" cx="43.7" cy="56.09" r="4.5"/><circle class="cls-6" cx="72.24" cy="84.96" r="4.5"/><circle class="cls-6" cx="56.09" cy="84.96" r="4.5"/><circle class="cls-6" cx="84.96" cy="56.42" r="4.5"/><circle class="cls-6" cx="84.96" cy="72.57" r="4.5"/><path class="cls-1" d="M388.34,54.5a3.83,3.83,0,1,1,3.84,3.79A3.78,3.78,0,0,1,388.34,54.5Zm3.84,3.16a3.15,3.15,0,1,0-3.08-3.16A3.05,3.05,0,0,0,392.18,57.66Zm-.8-1h-.66V52.33h1.66c1,0,1.54.38,1.54,1.24a1.13,1.13,0,0,1-1.13,1.2L394,56.69h-.74l-1.15-1.89h-.76Zm.79-2.45c.56,0,1.06,0,1.06-.71s-.49-.64-1-.64h-.9v1.35Z"/></svg>
